<?xml version="1.0" standalone="no"?>
<!DOCTYPE svg PUBLIC "-//W3C//DTD SVG 20010904//EN"
 "http://www.w3.org/TR/2001/REC-SVG-20010904/DTD/svg10.dtd">
<svg version="1.0" xmlns="http://www.w3.org/2000/svg"
 width="1280.000000pt" height="720.000000pt" viewBox="0 0 1280.000000 720.000000"
 preserveAspectRatio="xMidYMid meet">
<metadata>
Created by potrace 1.16, written by Peter Selinger 2001-2019
</metadata>
<g transform="translate(0.000000,720.000000) scale(0.100000,-0.100000)"
fill="#000000" stroke="none">
<path d="M0 6897 l1 -302 221 -222 220 -221 -29 -29 c-17 -15 -41 -37 -54 -47
-13 -11 -58 -48 -99 -84 -89 -75 -118 -100 -199 -167 l-60 -50 0 -312 c0 -172
1 -313 2 -313 7 0 419 174 557 234 41 19 93 40 115 47 22 8 42 16 45 20 3 3
32 16 65 29 65 25 250 103 303 127 32 15 34 15 73 -16 21 -18 90 -70 152 -117
61 -47 117 -91 122 -97 6 -7 28 -24 50 -39 22 -14 49 -33 60 -42 126 -101 168
-129 215 -147 63 -24 261 -55 288 -44 9 4 46 8 82 9 48 2 78 10 118 31 65 34
91 70 99 135 7 61 -14 226 -33 257 -8 12 -14 28 -14 34 0 27 -72 161 -107 200
-20 22 -71 66 -113 97 -41 31 -77 59 -80 62 -3 3 -21 17 -40 30 -19 13 -37 27
-40 30 -3 3 -21 17 -40 30 -19 13 -37 27 -40 30 -3 3 -21 17 -40 30 -19 13
-40 29 -46 35 -13 12 -51 41 -113 85 l-43 32 6 81 c4 45 18 156 31 247 14 91
27 185 30 210 3 25 16 128 30 230 14 102 25 188 25 193 0 4 -135 7 -300 7
l-300 0 -22 -42 c-12 -24 -41 -83 -63 -133 -95 -206 -126 -265 -138 -265 -7 0
-23 7 -36 17 -13 9 -53 32 -90 51 -36 19 -101 57 -143 84 -43 26 -80 48 -83
48 -5 0 -193 104 -282 156 -145 85 -141 84 -203 84 l-60 0 0 -303z m275 -17
c38 -47 75 -92 84 -101 9 -9 36 -40 61 -70 88 -105 304 -320 316 -315 7 3 11
0 8 -7 -6 -15 237 -239 366 -337 25 -19 47 -37 50 -40 3 -4 57 -45 120 -91
153 -114 324 -225 464 -301 64 -35 115 -67 116 -71 0 -8 -61 -86 -122 -156
-23 -26 -34 -31 -48 -25 -17 9 -103 80 -163 137 -17 15 -33 27 -36 27 -3 0
-22 15 -41 33 -19 18 -75 66 -125 107 -49 41 -92 77 -95 80 -3 3 -32 28 -65
55 -75 64 -340 289 -380 324 -16 14 -70 60 -120 101 -49 41 -95 80 -101 85 -6
6 -32 28 -59 50 -26 22 -66 56 -89 76 -138 121 -249 208 -258 202 -6 -3 -8 -1
-5 4 6 10 -89 102 -114 111 -19 7 -8 33 33 80 24 27 61 70 82 96 21 26 42 43
46 39 4 -4 38 -46 75 -93z m-145 -222 c0 -5 -7 -3 -15 6 -8 8 -15 18 -15 22 0
3 7 1 15 -6 8 -7 15 -17 15 -22z m500 -133 c14 -19 14 -19 -2 -6 -10 7 -18 18
-18 24 0 6 1 8 3 6 1 -2 9 -13 17 -24z m54 -334 c3 -5 -1 -11 -9 -14 -9 -4
-12 -1 -8 9 6 16 10 17 17 5z m1484 -563 c14 -14 17 -174 3 -182 -4 -3 -11
-18 -14 -34 -8 -40 -103 -135 -160 -160 -100 -44 -147 -38 -147 18 0 32 13 46
55 56 106 25 174 116 179 236 2 62 12 78 52 78 11 0 25 -5 32 -12z m-288 -48
c0 -5 -2 -10 -4 -10 -3 0 -8 5 -11 10 -3 6 -1 10 4 10 6 0 11 -4 11 -10z
m-954 -25 c-36 -19 -45 -19 -20 0 10 8 26 14 34 15 8 0 2 -7 -14 -15z m-681
-285 c-3 -5 -12 -10 -18 -10 -7 0 -6 4 3 10 19 12 23 12 15 0z"/>
<path d="M12790 6819 c0 -42 -152 -234 -177 -224 -23 8 -14 -20 47 -140 33
-65 59 -120 57 -121 -4 -4 -275 -143 -497 -255 -118 -60 -221 -112 -228 -117
-16 -11 -5 -42 14 -42 8 0 14 -9 14 -20 0 -11 7 -20 15 -20 8 0 15 5 15 10 0
6 11 10 24 10 14 0 28 5 31 10 3 6 15 10 26 10 11 0 27 7 35 15 9 8 27 18 42
22 15 3 33 13 41 20 7 8 26 17 42 20 16 3 29 12 29 19 0 20 -20 17 -55 -6 -16
-11 -37 -20 -45 -19 -13 0 -13 1 0 7 8 4 15 14 15 22 0 20 73 39 84 22 6 -10
19 -10 55 -2 56 12 70 6 63 -28 -3 -17 2 -35 14 -51 10 -13 19 -32 19 -42 0
-10 4 -21 10 -24 5 -3 25 -37 43 -75 19 -39 37 -67 40 -63 4 3 7 0 7 -8 0 -20
37 -96 50 -104 5 -3 10 -15 10 -26 0 -11 18 -51 40 -89 22 -38 40 -73 40 -79
0 -6 5 -11 10 -11 6 0 10 -6 10 -13 0 -8 16 -45 35 -83 l34 -69 -1 52 c-1 41
-4 50 -13 43 -15 -12 -25 7 -25 46 0 28 8 30 26 7 11 -15 13 50 14 400 0 403
-1 417 -19 417 -15 0 -19 7 -18 36 1 19 -5 39 -12 43 -10 7 -10 10 -1 16 6 4
17 2 23 -4 17 -17 27 -13 27 13 0 19 -4 22 -24 19 -13 -3 -32 0 -43 6 -16 9
-15 10 9 11 44 0 58 10 58 40 0 28 -1 29 -27 14 -39 -19 -65 -18 -35 3 12 8
22 22 22 29 0 8 9 14 20 14 19 0 20 7 20 175 0 96 -2 175 -5 175 -3 0 -5 -5
-5 -11z m-60 -540 c0 -11 -4 -17 -10 -14 -5 3 -27 1 -49 -6 -30 -9 -37 -15
-34 -30 3 -11 0 -19 -6 -19 -6 0 -11 7 -11 15 0 8 -8 15 -17 15 -10 1 2 10 27
21 25 11 52 24 60 29 25 15 40 11 40 -11z m-13 -35 c-3 -3 -12 -4 -19 -1 -8 3
-5 6 6 6 11 1 17 -2 13 -5z m-160 -51 c-3 -3 -11 -2 -17 2 -9 6 -9 10 1 16 14
8 27 -7 16 -18z m-71 -18 c-15 -8 -36 -15 -45 -15 -23 0 28 28 54 29 16 1 14
-2 -9 -14z m124 0 c0 -8 -7 -15 -15 -15 -8 0 -15 7 -15 15 0 8 7 15 15 15 8 0
15 -7 15 -15z m-214 -78 c-2 -7 -5 -4 -5 6 -1 19 -9 21 -31 7 -16 -10 -15 -11
20 -27 24 -11 24 -12 3 -12 -12 -1 -25 4 -28 9 -4 6 -22 8 -43 5 -36 -6 -35
-5 18 24 46 24 56 27 63 15 5 -8 6 -20 3 -27z m84 -27 c0 -5 -4 -10 -9 -10 -6
0 -13 5 -16 10 -3 6 1 10 9 10 9 0 16 -4 16 -10z m-246 -24 c-5 -13 -49 -31
-66 -28 -5 1 -8 -10 -8 -25 0 -26 0 -26 -21 -7 -20 18 -20 18 33 46 61 31 69
33 62 14z m-179 -92 c-28 -22 -28 -24 -8 -24 12 0 23 6 26 13 3 9 9 8 22 -4
16 -15 14 -16 -27 -17 -66 -2 -75 10 -31 40 46 31 59 25 18 -8z m494 -89 c-12
-12 -29 11 -29 40 0 18 2 18 20 -5 12 -16 16 -28 9 -35z m81 -130 c11 -20 11
-27 0 -40 -17 -20 -30 -3 -30 38 0 34 12 35 30 2z m79 -190 c-12 -12 -29 11
-29 40 0 18 2 18 20 -5 12 -16 16 -28 9 -35z m11 -35 c0 -5 -2 -10 -4 -10 -3
0 -8 5 -11 10 -3 6 -1 10 4 10 6 0 11 -4 11 -10z"/>
<path d="M7165 6611 c-7 -43 19 -111 61 -156 13 -14 24 -28 24 -30 0 -3 -15
-26 -34 -52 -59 -83 -81 -148 -81 -239 0 -74 3 -87 39 -157 45 -90 103 -147
184 -185 50 -23 69 -27 162 -27 92 0 112 4 160 26 71 33 112 70 162 142 30 44
44 57 56 52 10 -4 37 -12 62 -19 l45 -11 7 -93 c5 -76 12 -106 37 -156 98
-199 320 -275 523 -178 77 37 132 94 174 180 23 48 28 73 30 151 l4 95 59 18
c43 13 68 29 95 58 20 22 36 46 36 53 0 7 -54 28 -128 51 -70 21 -176 54 -237
74 -72 22 -138 36 -190 40 -74 4 -87 2 -158 -28 -62 -25 -91 -45 -139 -95
l-61 -62 -71 19 c-39 11 -72 22 -74 23 -2 2 -5 31 -8 65 -4 45 -15 81 -39 129
-66 127 -124 171 -300 228 -208 67 -384 123 -389 123 -2 0 -7 -17 -11 -39z
m465 -242 c89 -45 140 -129 140 -232 0 -77 -9 -106 -51 -159 -94 -117 -272
-126 -379 -18 -146 145 -72 391 130 430 48 10 118 1 160 -21z m878 -268 c43
-22 112 -93 130 -134 15 -34 16 -155 1 -194 -19 -51 -78 -111 -134 -137 -169
-80 -359 41 -359 229 0 59 16 117 39 141 5 7 19 24 30 39 10 15 40 37 65 50
59 32 172 34 228 6z"/>
<path d="M11050 6556 c-14 -8 -40 -22 -57 -31 -37 -19 -36 -18 -25 -43 85
-176 78 -165 162 -255 111 -119 281 -205 448 -226 96 -12 283 3 299 25 7 10
13 11 18 5 3 -6 11 -11 17 -11 15 0 2 43 -32 100 -17 28 -30 54 -30 58 0 4
-69 7 -153 8 -138 0 -158 2 -219 26 -88 33 -168 82 -233 140 -55 50 -145 175
-145 202 0 20 -17 20 -50 2z"/>
<path d="M12150 6400 c-9 -6 -10 -10 -3 -10 6 0 15 5 18 10 8 12 4 12 -15 0z"/>
<path d="M12785 6298 c-4 -10 -4 -26 0 -35 8 -17 8 -17 12 0 3 9 3 25 0 35 -4
16 -4 16 -12 0z"/>
<path d="M5415 6252 c-6 -5 -30 -17 -55 -27 -25 -10 -78 -33 -118 -52 -41 -18
-78 -33 -83 -33 -4 0 -23 -8 -41 -18 -18 -10 -53 -26 -78 -36 -76 -29 -180
-79 -180 -85 0 -3 24 -22 52 -41 90 -61 90 -58 -6 -101 -47 -22 -92 -39 -100
-39 -8 0 -16 -5 -18 -10 -2 -6 -13 -12 -26 -13 -24 -1 -27 -8 -13 -35 5 -9 33
-72 62 -139 29 -67 55 -121 58 -119 16 9 163 76 167 76 2 0 27 11 56 24 49 22
166 73 348 151 88 37 136 59 205 90 28 12 74 33 103 46 28 12 52 26 52 29 0 7
-110 262 -116 269 -5 6 -100 -33 -207 -85 l-48 -23 7 90 c6 85 2 101 -21 81z"/>
<path d="M11930 5981 c0 -5 5 -13 10 -16 6 -3 10 -2 10 4 0 5 -4 13 -10 16 -5
3 -10 2 -10 -4z"/>
<path d="M11461 5035 c-94 -21 -181 -70 -181 -102 0 -16 82 -177 93 -181 4 -2
7 -8 7 -14 0 -21 84 -91 138 -115 71 -33 151 -40 231 -19 77 20 278 115 286
136 9 21 -33 96 -85 149 -86 89 -148 122 -278 147 -89 17 -127 17 -211 -1z"/>
<path d="M2000 4636 c-36 -13 -101 -35 -145 -50 -44 -16 -89 -32 -100 -37 -24
-11 -314 -116 -370 -135 -22 -7 -103 -36 -180 -64 -77 -28 -169 -61 -204 -73
l-64 -22 245 -3 c169 -2 255 1 274 9 55 23 219 80 259 91 22 6 42 14 45 18 3
3 41 18 85 32 44 15 125 43 180 63 55 21 121 44 148 53 26 9 47 21 47 27 0 26
-54 93 -84 103 -44 16 -60 15 -136 -12z"/>
<path d="M2165 4327 c-60 -22 -111 -41 -113 -42 -1 -1 0 -10 4 -19 5 -14 25
-16 135 -16 146 0 147 1 106 76 l-22 40 -110 -39z"/>
<path d="M7934 3829 c-70 -20 -111 -98 -81 -156 16 -29 47 -48 159 -97 63 -27
85 -57 74 -100 -14 -58 -133 -76 -200 -31 -43 29 -56 31 -56 10 0 -9 21 -29
48 -46 42 -27 54 -30 109 -27 75 5 112 28 130 82 26 76 -9 122 -120 161 -81
29 -117 60 -117 100 0 40 30 65 87 72 44 5 58 2 97 -21 29 -17 47 -22 51 -15
11 16 -31 55 -74 68 -44 13 -64 13 -107 0z"/>
<path d="M4276 3822 c-3 -4 18 -73 45 -153 28 -79 60 -173 72 -209 28 -84 45
-87 75 -13 56 140 87 213 92 213 6 0 12 -14 69 -154 44 -107 55 -126 71 -110
19 19 150 418 140 428 -17 17 -28 -5 -89 -182 -32 -95 -60 -175 -63 -178 -3
-2 -29 55 -59 128 -36 88 -59 133 -69 133 -10 0 -32 -43 -65 -127 -28 -70 -53
-130 -57 -133 -3 -3 -28 63 -57 147 -29 84 -58 168 -66 186 -14 31 -29 40 -39
24z"/>
<path d="M5059 3808 c-14 -25 -158 -372 -166 -402 -5 -14 -1 -17 13 -14 12 2
26 22 39 53 11 28 23 55 28 61 8 13 185 19 203 6 6 -4 21 -33 34 -64 13 -32
30 -58 37 -58 20 0 17 15 -41 159 -85 210 -114 275 -125 279 -5 2 -15 -7 -22
-20z m65 -152 c20 -50 36 -94 36 -98 0 -4 -38 -8 -85 -8 -47 0 -85 2 -85 4 0
7 70 187 76 198 10 16 20 -1 58 -96z"/>
<path d="M5353 3823 c-17 -6 -19 -418 -2 -428 6 -4 12 -5 14 -3 2 1 5 81 7
176 2 96 6 176 9 178 4 2 66 -77 140 -176 73 -99 139 -180 146 -180 10 0 13
46 13 221 0 172 -3 220 -12 217 -10 -4 -14 -54 -18 -188 l-5 -183 -81 109
c-45 60 -99 134 -122 164 -63 84 -76 98 -89 93z"/>
<path d="M5817 3823 c-4 -3 -7 -100 -7 -214 0 -204 0 -209 22 -220 31 -17 206
-6 247 15 100 52 131 258 53 354 -48 60 -83 72 -203 72 -58 0 -109 -3 -112 -7z
m256 -56 c45 -29 62 -73 62 -162 0 -65 -4 -86 -22 -115 -34 -54 -57 -64 -165
-68 l-98 -4 0 185 0 186 28 3 c58 7 168 -7 195 -25z"/>
<path d="M6277 3823 c-4 -3 -7 -102 -7 -219 l0 -212 44 -6 c56 -9 200 -6 216
4 32 20 -6 30 -111 30 l-109 0 0 90 0 90 100 0 c82 0 100 3 100 15 0 12 -18
15 -100 15 l-100 0 0 80 0 80 38 2 c20 1 70 2 110 3 76 3 88 6 77 24 -7 12
-247 16 -258 4z"/>
<path d="M6634 3817 c-2 -7 -3 -105 -2 -217 3 -186 5 -205 21 -208 15 -3 17 6
17 92 l0 96 68 0 c124 0 162 -24 162 -103 0 -41 20 -81 43 -85 18 -4 24 22 8
32 -5 3 -12 31 -16 61 -4 36 -15 65 -30 84 l-24 28 24 23 c38 36 50 88 32 133
-26 61 -64 77 -190 77 -78 0 -109 -3 -113 -13z m253 -50 c12 -12 18 -33 18
-63 0 -38 -5 -50 -28 -70 -25 -21 -37 -24 -118 -24 l-89 0 0 88 c0 49 2 91 4
93 2 2 47 2 100 -1 74 -4 99 -9 113 -23z"/>
<path d="M7073 3823 c-10 -4 -13 -56 -13 -217 l0 -213 46 -7 c105 -14 214 -4
214 20 0 11 -23 14 -110 14 l-110 0 0 199 c0 110 -3 202 -7 204 -5 2 -14 2
-20 0z"/>
<path d="M7404 3816 c-3 -8 -4 -84 -2 -168 3 -174 11 -196 82 -242 79 -52 189
-18 232 72 14 30 18 65 18 189 1 83 -2 154 -6 158 -21 21 -28 -16 -28 -151 0
-159 -9 -196 -55 -232 -51 -41 -149 -24 -186 32 -10 15 -15 67 -19 185 -4 119
-8 166 -17 169 -7 2 -16 -3 -19 -12z"/>
<path d="M8190 3815 c0 -12 14 -15 70 -15 l70 0 2 -202 c3 -184 5 -203 21
-206 16 -3 17 12 17 202 l0 206 75 0 c60 0 75 3 75 15 0 13 -25 15 -165 15
-140 0 -165 -2 -165 -15z"/>
<path d="M10770 2945 c0 -22 41 -79 90 -125 222 -213 578 -177 758 77 35 49
30 53 -58 53 -64 0 -80 -3 -80 -15 0 -8 -7 -15 -16 -15 -9 0 -12 -5 -8 -12 5
-7 2 -9 -8 -6 -8 4 -21 2 -29 -3 -11 -7 -10 -9 5 -9 30 0 -63 -56 -107 -64
-20 -4 -37 -11 -37 -16 0 -28 -217 8 -254 42 -11 10 -29 21 -40 24 -12 4 -29
16 -38 28 -10 12 -22 27 -28 34 -11 12 -150 18 -150 7z"/>
<path d="M11410 2940 c-35 -7 -35 -7 -5 -9 17 0 37 4 45 9 17 11 11 11 -40 0z"/>
<path d="M10978 2933 c12 -2 30 -2 40 0 9 3 -1 5 -23 4 -22 0 -30 -2 -17 -4z"/>
<path d="M11040 2920 c0 -8 61 -33 66 -27 2 2 -12 10 -31 19 -19 8 -35 12 -35
8z"/>
<path d="M11325 2904 c-23 -10 -25 -13 -10 -13 21 -1 53 15 45 22 -3 2 -18 -2
-35 -9z"/>
<path d="M8191 2122 c-5 -10 -21 -63 -35 -117 -15 -55 -35 -129 -46 -165 -29
-95 -111 -383 -130 -455 -11 -42 -89 -316 -149 -527 -50 -172 -80 -294 -84
-332 -2 -14 8 -22 38 -32 70 -22 276 -81 415 -120 74 -20 252 -70 395 -111
225 -65 268 -74 322 -71 102 6 175 70 208 182 31 104 132 466 139 496 2 8 6
22 9 30 7 16 146 506 151 530 2 8 6 22 9 30 12 30 27 122 26 158 -2 100 -61
167 -182 206 -98 31 -275 83 -412 121 -55 15 -183 53 -285 86 -167 52 -361
109 -374 109 -3 0 -10 -8 -15 -18z m770 -517 c107 -38 142 -68 185 -160 28
-60 31 -128 8 -205 -23 -76 -100 -153 -179 -176 -140 -40 -281 19 -347 146
-19 37 -23 60 -23 130 0 74 3 91 27 130 37 64 76 97 144 125 68 28 124 31 185
10z m-527 -741 c33 -8 91 -24 127 -35 62 -18 66 -21 61 -44 -2 -14 -8 -27 -12
-30 -4 -2 -49 8 -101 24 -52 16 -113 34 -136 40 -44 12 -48 17 -37 45 8 20 21
20 98 0z m11 -100 c50 -14 128 -37 175 -50 217 -60 215 -59 212 -85 -4 -36
-15 -41 -53 -25 -19 8 -88 28 -154 46 -66 17 -154 42 -195 55 -41 13 -84 25
-95 27 -27 4 -36 18 -24 40 13 24 27 23 134 -8z m-1 -98 c61 -18 170 -50 242
-71 130 -37 131 -38 120 -61 -13 -29 -18 -29 -109 -3 -39 11 -101 29 -137 39
-36 9 -99 27 -140 39 -41 11 -88 24 -105 29 -16 5 -30 14 -29 20 1 7 2 19 3
27 2 22 33 19 155 -19z"/>
<path d="M8833 1570 c-15 -6 -21 -15 -17 -25 8 -20 15 -19 43 10 24 26 15 31
-26 15z"/>
<path d="M8899 1535 c-32 -17 -45 -45 -27 -57 15 -9 78 -28 96 -28 15 0 15 20
1 57 -9 25 -26 43 -39 42 -3 0 -17 -6 -31 -14z"/>
<path d="M8713 1503 c-19 -21 -39 -46 -44 -56 -11 -19 -10 -19 53 -35 36 -10
37 -9 57 30 18 37 18 41 3 69 -10 16 -21 29 -26 29 -4 0 -24 -17 -43 -37z"/>
<path d="M9013 1505 c11 -38 18 -42 36 -21 10 11 7 19 -10 35 -32 30 -39 26
-26 -14z"/>
<path d="M8813 1421 l-11 -30 57 -16 c31 -10 69 -21 85 -26 16 -5 31 -9 32 -9
2 0 4 16 4 35 0 33 -2 35 -32 35 -18 0 -53 9 -77 20 -24 11 -44 20 -45 20 -1
0 -7 -13 -13 -29z"/>
<path d="M9051 1431 c-21 -18 -48 -88 -38 -98 3 -2 28 -10 57 -18 44 -12 52
-12 57 1 7 20 -5 90 -20 114 -15 25 -28 25 -56 1z"/>
<path d="M8640 1341 c0 -27 7 -65 15 -84 l15 -36 30 17 c31 17 37 31 42 91 3
32 1 34 -47 47 -27 7 -51 13 -52 14 -2 0 -3 -22 -3 -49z"/>
<path d="M8792 1336 c-5 -6 -12 -25 -15 -42 -6 -31 -6 -31 38 -32 24 -1 61 -8
81 -17 20 -8 38 -14 38 -13 1 2 8 15 16 30 7 16 11 30 9 32 -2 3 -39 16 -81
29 -57 18 -80 22 -86 13z"/>
<path d="M8984 1240 c-12 -26 -18 -52 -14 -57 5 -4 15 -20 23 -35 l13 -26 32
25 c27 21 72 88 72 108 0 3 -8 5 -18 5 -10 0 -22 4 -27 9 -6 4 -21 11 -35 14
-22 5 -27 0 -46 -43z"/>
<path d="M8787 1223 c-29 -8 -3 -87 33 -98 34 -11 91 40 74 67 -11 18 -80 38
-107 31z"/>
<path d="M8715 1197 c-20 -15 -15 -31 17 -48 18 -10 19 -9 12 13 -4 12 -7 29
-7 36 0 15 1 15 -22 -1z"/>
<path d="M8900 1118 l-34 -31 33 6 c19 4 40 7 47 7 17 0 18 11 2 33 -12 15
-16 13 -48 -15z"/>
<path d="M940 2023 c-234 -30 -429 -58 -434 -63 -5 -5 -4 -39 2 -82 6 -40 14
-96 17 -125 l7 -52 51 6 c29 3 55 9 60 12 4 4 3 35 -1 70 -5 37 -5 64 1 68 8
5 111 19 539 74 48 6 93 9 101 6 9 -3 17 -29 22 -72 5 -53 10 -65 22 -61 8 3
29 6 46 6 59 0 60 3 41 143 -14 104 -20 127 -33 126 -9 -1 -207 -26 -441 -56z"/>
<path d="M5894 1900 c-51 -10 -118 -21 -150 -25 -33 -4 -156 -22 -274 -41
-118 -19 -289 -46 -380 -60 -91 -13 -244 -38 -340 -53 -96 -16 -233 -37 -304
-47 -140 -20 -195 -44 -216 -93 -11 -27 3 -150 50 -431 11 -69 32 -199 45
-289 28 -181 43 -214 103 -227 43 -8 139 4 502 66 30 5 82 12 115 15 33 4 76
11 95 16 19 4 141 24 270 44 129 19 287 44 350 55 63 10 165 26 225 35 173 25
202 34 237 68 30 30 30 33 25 102 -5 63 -46 330 -97 638 -11 64 -20 128 -20
142 0 16 -15 40 -40 65 -47 47 -58 48 -196 20z m44 -328 c3 -46 -1 -59 -32
-106 -39 -57 -41 -67 -26 -94 26 -45 90 -195 90 -211 0 -22 -19 -41 -41 -41
-9 0 -49 36 -90 81 l-73 81 -55 -57 -54 -56 11 -50 c14 -59 14 -70 4 -87 -13
-20 -39 -4 -76 47 -28 37 -45 50 -91 66 -61 20 -73 33 -57 62 8 13 23 17 68
18 l57 0 38 70 39 70 -83 39 c-45 21 -91 39 -103 40 -24 1 -29 33 -9 60 15 20
34 20 228 0 52 -5 60 -3 78 17 10 12 19 25 19 28 0 3 13 20 28 37 30 34 51 43
97 41 29 -2 30 -4 33 -55z m-1043 -62 c3 -6 -1 -13 -10 -17 -14 -5 -16 -14
-11 -44 3 -21 2 -40 -4 -44 -10 -6 -14 1 -24 48 -6 24 -11 27 -46 27 -23 0
-40 -5 -40 -11 0 -7 10 -9 25 -7 17 4 25 1 25 -8 0 -8 -9 -14 -19 -14 -11 0
-23 -5 -27 -11 -5 -8 3 -10 25 -7 37 5 45 -19 9 -26 -72 -15 -88 -15 -102 -1
-20 20 -26 19 -26 -5 0 -11 -6 -20 -14 -20 -18 0 -33 97 -17 113 7 7 12 5 17
-7 6 -16 8 -15 26 3 32 36 51 22 26 -18 -9 -15 -9 -23 1 -35 23 -27 31 -18 24
29 l-6 45 39 1 c22 1 53 5 69 9 44 11 53 11 60 0z m-279 -51 c3 -6 0 -15 -7
-20 -8 -5 -15 -4 -17 1 -6 16 -32 -1 -32 -20 0 -24 18 -36 33 -21 16 16 37 14
37 -4 0 -20 -37 -38 -65 -31 -28 7 -42 54 -25 85 12 23 64 29 76 10z m-93 -50
c4 -29 4 -56 1 -61 -10 -16 -21 1 -28 42 -8 51 -26 43 -26 -11 0 -40 -13 -52
-24 -23 -3 9 -6 27 -6 41 0 18 -4 24 -14 20 -8 -3 -17 1 -20 9 -3 9 3 16 17
19 98 20 93 22 100 -36z"/>
<path d="M5868 1583 c7 -3 16 -2 19 1 4 3 -2 6 -13 5 -11 0 -14 -3 -6 -6z"/>
<path d="M11645 1895 c-27 -7 -124 -33 -215 -58 -152 -42 -205 -57 -391 -107
-76 -20 -104 -43 -118 -97 -10 -37 -45 -205 -62 -293 -4 -25 -20 -99 -34 -165
-14 -66 -39 -185 -55 -265 -16 -80 -52 -255 -80 -390 -71 -337 -69 -324 -55
-344 14 -18 -16 -25 405 91 249 68 345 95 349 99 5 5 21 76 136 639 31 151 43
231 36 233 -6 2 -11 17 -11 34 0 21 6 31 20 35 11 3 20 7 20 8 0 2 27 135 60
295 33 160 60 293 60 296 0 5 -5 4 -65 -11z m-125 -600 c22 -27 -1 -57 -54
-70 -45 -12 -48 -11 -62 11 -12 17 -13 28 -5 43 17 30 100 41 121 16z m-152
-47 c22 -22 13 -52 -24 -76 -48 -31 -78 -26 -82 13 -2 24 4 34 30 52 38 25 59
28 76 11z m-242 -50 c4 -7 3 -8 -4 -4 -10 6 -24 -30 -34 -89 -2 -12 -14 -21
-33 -25 -17 -4 -42 -14 -57 -24 -64 -42 -31 -164 46 -167 17 -1 24 -3 15 -6
-10 -2 -20 -24 -28 -61 -25 -126 -46 -212 -51 -212 -9 0 -80 131 -111 204 -71
168 -36 311 93 375 48 23 152 29 164 9z m135 -98 c7 -70 3 -75 -13 -14 -12 48
-12 48 -19 19 l-7 -30 -1 33 c0 17 -5 32 -11 32 -5 0 -10 5 -10 11 0 6 12 9
28 7 25 -3 27 -7 33 -58z m-76 -140 c-4 -17 -11 -30 -16 -30 -6 0 -5 8 1 20 6
11 8 32 5 47 -5 24 -5 25 5 10 6 -10 9 -31 5 -47z m84 -47 c-16 -45 -43 -93
-52 -93 -4 0 4 20 18 43 14 24 25 51 25 60 0 10 4 17 10 17 6 0 6 -10 -1 -27z
m-109 -7 c0 -3 -4 -8 -10 -11 -5 -3 -10 -1 -10 4 0 6 5 11 10 11 6 0 10 -2 10
-4z m-37 -23 c-7 -2 -19 -2 -25 0 -7 3 -2 5 12 5 14 0 19 -2 13 -5z m57 -103
c0 -5 -5 -10 -11 -10 -5 0 -7 5 -4 10 3 6 8 10 11 10 2 0 4 -4 4 -10z m-90
-90 c0 -5 -5 -10 -11 -10 -5 0 -7 5 -4 10 3 6 8 10 11 10 2 0 4 -4 4 -10z"/>
<path d="M11771 1838 c-7 -35 -19 -92 -26 -128 -8 -36 -28 -132 -46 -215 -18
-82 -33 -173 -33 -201 -1 -28 -6 -57 -12 -65 -6 -8 -17 -41 -24 -74 -27 -131
-70 -341 -116 -568 l-49 -238 30 -27 c17 -15 51 -43 76 -62 25 -19 65 -52 90
-72 24 -21 87 -71 139 -112 l95 -76 126 0 127 0 19 103 c11 56 18 107 16 114
-3 6 -18 16 -35 22 -23 8 -29 16 -26 33 3 20 8 23 44 20 40 -2 42 -1 47 30 2
18 21 112 41 208 20 96 48 229 61 295 14 66 36 174 50 240 14 66 35 167 46
224 l20 104 -23 23 c-40 39 -607 484 -616 484 -5 0 -15 -28 -21 -62z m3 -617
c29 -31 32 -64 5 -69 -22 -4 -79 45 -79 67 0 41 36 42 74 2z m63 -99 c32 -20
40 -112 9 -112 -35 0 -73 93 -45 111 17 11 21 11 36 1z m53 -168 c21 -54 7
-101 -28 -90 -24 8 -39 80 -21 102 18 22 39 17 49 -12z m26 -159 c3 -12 4 -36
2 -51 -2 -23 -8 -29 -28 -29 -21 0 -26 6 -33 44 -7 37 -6 47 8 57 22 16 44 7
51 -21z m24 -176 c14 -56 5 -75 -28 -65 -21 7 -32 33 -32 77 0 30 7 39 31 39
12 0 20 -14 29 -51z m45 -143 c19 -48 14 -66 -15 -66 -29 0 -64 83 -43 103 19
19 42 4 58 -37z m82 -118 c26 -25 30 -35 22 -50 -5 -10 -14 -18 -20 -18 -21 0
-69 45 -69 65 0 45 23 46 67 3z"/>
<path d="M190 1778 c-30 -4 -84 -10 -120 -14 -36 -3 -65 -7 -66 -8 0 0 4 -29
9 -63 8 -58 10 -61 30 -54 12 5 56 12 97 16 41 3 93 10 115 13 39 7 40 9 37
43 -7 82 -4 80 -102 67z m-83 -114 c-3 -3 -12 -4 -19 -1 -8 3 -5 6 6 6 11 1
17 -2 13 -5z"/>
<path d="M12700 1440 c-36 -10 -92 -25 -125 -34 -60 -17 -85 -36 -85 -66 0
-17 -45 -244 -115 -575 -25 -121 -58 -283 -73 -360 l-28 -140 50 -2 c57 -3 71
-12 61 -42 -4 -15 -15 -21 -38 -22 -45 -2 -61 1 -69 14 -4 6 -9 9 -11 7 -4 -4
-47 -200 -47 -214 0 -3 131 -6 290 -6 l290 0 0 428 0 429 -25 23 -26 24 -45
-51 c-44 -51 -75 -70 -94 -58 -14 9 5 51 45 98 40 47 43 62 15 79 -25 16 -26
59 -2 81 24 22 34 21 66 -4 16 -13 33 -18 46 -14 19 6 20 15 20 216 0 239 10
220 -100 189z m71 -650 c23 -13 25 -53 3 -74 -19 -19 -26 -20 -42 -4 -21 21
-9 88 16 88 2 0 12 -5 23 -10z m-1 -135 c9 -11 10 -27 4 -57 -7 -34 -14 -43
-36 -49 -27 -7 -28 -6 -28 38 0 72 29 105 60 68z m-46 -141 c20 -8 20 -28 -1
-76 -12 -27 -23 -38 -39 -38 -28 0 -36 21 -22 62 18 55 30 64 62 52z m-66
-155 c4 -32 -43 -81 -72 -77 -36 5 -31 41 9 77 41 36 59 36 63 0z m-120 -95
c4 -27 -57 -59 -94 -50 -36 9 -31 44 9 61 45 20 81 15 85 -11z"/>
<path d="M61 1443 c-62 -24 -82 -113 -37 -158 34 -33 69 -40 109 -21 65 30 75
100 23 152 -33 33 -61 40 -95 27z m-23 -138 c-3 -3 -9 2 -12 12 -6 14 -5 15 5
6 7 -7 10 -15 7 -18z m29 -7 c-3 -8 -6 -5 -6 6 -1 11 2 17 5 13 3 -3 4 -12 1
-19z"/>
<path d="M1160 1253 c-53 -8 -145 -47 -189 -78 -61 -44 -87 -75 -125 -149 -29
-56 -31 -69 -31 -161 0 -92 2 -105 32 -165 35 -70 114 -153 173 -181 19 -9 48
-23 64 -30 18 -9 62 -14 120 -13 77 1 100 5 150 29 100 47 192 153 222 255 43
145 -24 327 -154 418 -81 56 -188 87 -262 75z m178 -37 l27 -15 -24 -1 c-39 0
-141 -32 -135 -41 3 -5 -1 -6 -9 -3 -24 9 -113 -44 -175 -104 -67 -64 -137
-182 -148 -250 -9 -60 -25 -40 -31 40 -4 46 0 81 13 124 10 32 18 65 17 72 0
7 1 11 4 8 3 -3 18 14 33 37 40 64 131 127 212 148 47 12 183 2 216 -15z m-51
-52 c-3 -3 -12 -4 -19 -1 -8 3 -5 6 6 6 11 1 17 -2 13 -5z m240 -136 c-3 -8
-6 -5 -6 6 -1 11 2 17 5 13 3 -3 4 -12 1 -19z m-620 -210 c-3 -8 -6 -5 -6 6
-1 11 2 17 5 13 3 -3 4 -12 1 -19z m428 -298 c-3 -5 -11 -10 -16 -10 -6 0 -7
5 -4 10 3 6 11 10 16 10 6 0 7 -4 4 -10z"/>
<path d="M2325 1004 c-10 -3 -485 -64 -505 -64 -6 0 -10 -33 -10 -79 0 -79 0
-80 28 -84 l27 -4 -27 -2 c-20 -1 -29 -9 -37 -32 -6 -18 -11 -39 -11 -48 0
-26 -67 -159 -103 -205 -92 -117 -212 -194 -357 -227 -60 -14 -216 -13 -277 2
-74 18 -172 67 -239 120 -60 48 -144 145 -144 167 0 7 -4 12 -8 12 -9 0 -57
133 -67 188 -6 30 -9 32 -38 27 -39 -6 -206 -28 -382 -50 -72 -9 -140 -18
-152 -21 l-23 -4 0 -350 0 -350 30 0 c28 0 29 2 24 33 -3 17 -7 37 -9 44 -2 6
12 14 31 18 44 8 258 34 260 32 1 -1 5 -28 9 -59 7 -56 7 -56 -21 -61 -16 -2
385 -4 891 -5 898 -1 924 -1 1095 21 l175 23 -3 69 c-1 39 -11 126 -22 195
-10 69 -28 199 -40 290 -11 91 -23 182 -26 202 l-6 38 -50 -5 c-27 -2 -92 -9
-144 -16 -52 -6 -97 -9 -100 -7 -2 3 64 13 147 23 l151 18 -7 46 c-16 115 -19
122 -60 105z m-257 -201 c-10 -2 -26 -2 -35 0 -10 3 -2 5 17 5 19 0 27 -2 18
-5z m-103 -14 c-22 -4 -53 -7 -70 -7 -26 1 -24 2 10 8 22 4 54 7 70 7 25 1 23
-1 -10 -8z m-1357 -176 c-10 -2 -28 -2 -40 0 -13 2 -5 4 17 4 22 1 32 -1 23
-4z m-69 -7 c-7 -7 -268 -38 -281 -34 -7 3 41 12 107 20 127 16 181 21 174 14z
m-394 -52 c-55 -8 -107 -13 -115 -11 -20 4 123 24 175 24 22 1 -5 -6 -60 -13z"/>
</g>
</svg>
